<svg width="103" height="45" viewBox="0 0 103 45" fill="none" xmlns="http://www.w3.org/2000/svg">
<path d="M22.6021 45C35.0745 45 45.2042 34.9378 45.2042 22.505C45.2042 10.0715 35.0745 0 22.6021 0C10.1104 0 0 10.0715 0 22.505C0 34.9378 10.1104 45 22.6021 45Z" fill="#A50034"/>
<path d="M21.6927 12.6284V32.3712H27.9927V30.596H23.5085V12.6284H21.6927Z" fill="white"/>
<path d="M15.3846 18.0153C16.8834 18.0153 18.0916 16.8012 18.0916 15.3184C18.0916 13.8345 16.8834 12.6157 15.3846 12.6157C13.8858 12.6157 12.6776 13.8345 12.6776 15.3184C12.6776 16.8023 13.8858 18.0153 15.3846 18.0153Z" fill="white"/>
<path d="M23.508 3.6727C23.2717 3.66105 22.8226 3.64648 22.608 3.64648C12.1754 3.64648 3.68481 12.1083 3.68481 22.4956C3.68481 27.541 5.65263 32.27 9.21691 35.8262C12.7958 39.3743 17.5449 41.3348 22.608 41.3348C27.6518 41.3348 32.3997 39.3743 35.9722 35.8262C39.5452 32.27 41.5224 27.541 41.5224 22.4956V21.6572H40.7569H28.0103V23.3922H39.7201C39.7201 23.4301 39.7201 23.6142 39.7119 23.662C39.1166 32.5421 31.6722 39.5753 22.608 39.5753C18.0197 39.5753 13.7174 37.7978 10.4795 34.5695C7.23097 31.3547 5.44093 27.072 5.44093 22.495C5.44093 17.9443 7.23097 13.6394 10.4795 10.4146C13.7174 7.19281 18.0197 5.41528 22.608 5.41528C22.8057 5.41528 23.2863 5.41528 23.508 5.42693V3.6727Z" fill="white"/>
<path d="M62.2023 7.57508H55.4105V36.8674H76.2711V31.1654H62.2023V7.57508V7.57508ZM91.2119 25.7047H96.7434V30.8264C95.7235 31.2132 93.7347 31.5989 91.8423 31.5989C85.7295 31.5989 83.6932 28.5058 83.6932 22.2236C83.6932 16.2326 85.6324 12.7003 91.7452 12.7003C95.1422 12.7003 97.0826 13.7641 98.6814 15.7945L102.904 11.9266C100.332 8.25615 95.8194 7.14453 91.6002 7.14453C82.0892 7.14453 77.0933 12.3158 77.0933 22.1746C77.0933 31.9857 81.605 37.302 91.5522 37.302C96.1118 37.302 100.576 36.1426 103 34.4513V20.2415H91.2119V25.7047Z" fill="white"/>
</svg>
